<svg width="24" height="24" viewBox="0 0 24 24" fill="none" xmlns="http://www.w3.org/2000/svg">
<g clip-path="url(#clip0_1_710)">
<path d="M18 12C18 15.3082 15.3082 18 12 18C8.69175 18 6 15.3082 6 12C6 8.69175 8.69175 6 12 6C15.3082 6 18 8.69175 18 12ZM12 4.5C12.4148 4.5 12.75 4.164 12.75 3.75V1.5C12.75 1.086 12.4148 0.75 12 0.75C11.5852 0.75 11.25 1.086 11.25 1.5V3.75C11.25 4.164 11.5852 4.5 12 4.5ZM12 19.5C11.5852 19.5 11.25 19.836 11.25 20.25V22.5C11.25 22.914 11.5852 23.25 12 23.25C12.4148 23.25 12.75 22.914 12.75 22.5V20.25C12.75 19.836 12.4148 19.5 12 19.5ZM22.5 11.25H20.25C19.8353 11.25 19.5 11.586 19.5 12C19.5 12.414 19.8353 12.75 20.25 12.75H22.5C22.9147 12.75 23.25 12.414 23.25 12C23.25 11.586 22.9147 11.25 22.5 11.25ZM4.5 12C4.5 11.586 4.16475 11.25 3.75 11.25H1.5C1.08525 11.25 0.75 11.586 0.75 12C0.75 12.414 1.08525 12.75 1.5 12.75H3.75C4.16475 12.75 4.5 12.414 4.5 12ZM5.63625 6.69675C5.7825 6.843 5.9745 6.9165 6.1665 6.9165C6.3585 6.9165 6.5505 6.843 6.69675 6.69675C6.99 6.4035 6.99 5.9295 6.69675 5.63625L5.106 4.0455C4.81275 3.75225 4.33875 3.75225 4.0455 4.0455C3.75225 4.33875 3.75225 4.81275 4.0455 5.106L5.63625 6.69675ZM18.3645 17.304C18.0713 17.0107 17.5972 17.0107 17.304 17.304C17.0107 17.5972 17.0107 18.0713 17.304 18.3645L18.8948 19.9552C19.041 20.1015 19.233 20.175 19.425 20.175C19.617 20.175 19.809 20.1015 19.9552 19.9552C20.2485 19.662 20.2485 19.188 19.9552 18.8948L18.3645 17.304ZM17.8342 6.9165C18.0262 6.9165 18.2183 6.843 18.3645 6.69675L19.9552 5.106C20.2485 4.81275 20.2485 4.33875 19.9552 4.0455C19.662 3.75225 19.188 3.75225 18.8948 4.0455L17.304 5.63625C17.0107 5.9295 17.0107 6.4035 17.304 6.69675C17.4503 6.843 17.6423 6.9165 17.8342 6.9165ZM5.63625 17.3032L4.0455 18.894C3.75225 19.1873 3.75225 19.6613 4.0455 19.9545C4.19175 20.1007 4.38375 20.1742 4.57575 20.1742C4.76775 20.1742 4.95975 20.1007 5.106 19.9545L6.69675 18.3638C6.99 18.0705 6.99 17.5965 6.69675 17.3032C6.4035 17.01 5.9295 17.01 5.63625 17.3032Z" fill="#687385"/>
</g>
<defs>
<clipPath id="clip0_1_710">
<rect width="24" height="24" fill="#687385"/>
</clipPath>
</defs>
</svg>
